<?xml version="1.0" encoding="iso-8859-1"?>
<!-- Generator: Adobe Illustrator 19.0.0, SVG Export Plug-In . SVG Version: 6.00 Build 0)  -->
<svg version="1.1" id="Capa_1" xmlns="http://www.w3.org/2000/svg" xmlns:xlink="http://www.w3.org/1999/xlink" x="0px" y="0px"
	 viewBox="0 0 490.667 490.667" style="enable-background:new 0 0 490.667 490.667;" xml:space="preserve">
<path style="fill:#8BC34A;" d="M490.667,245.333c0,3.627,0,7.467-0.213,11.093c-5.958,126.7-107.327,228.069-234.027,234.027
	c-3.627,0.213-7.467,0.213-11.093,0.213c-3.627,0-6.827,0-10.24-0.213C107.809,484.938,5.845,383.066,0.213,255.787
	C0,252.373,0,248.747,0,245.333s0-7.253,0.213-10.88C5.955,107.54,107.54,5.955,234.453,0.213C238.08,0,241.707,0,245.333,0
	c3.627,0,7.04,0,10.453,0.213C382.996,5.817,484.85,107.67,490.453,234.88C490.667,238.293,490.667,241.92,490.667,245.333z"/>
<g>
	<path style="fill:#FAFAFA;" d="M255.787,0.213c3.062,70.118-24.13,138.176-74.667,186.88
		C135.364,231.394,74.141,256.112,10.453,256c-3.413,0-6.827,0-10.24-0.213C0,252.373,0,248.747,0,245.333s0-7.253,0.213-10.88
		c61.628,3.015,121.741-19.701,165.973-62.72c46.542-44.575,71.449-107.154,68.267-171.52C238.08,0,241.707,0,245.333,0
		C248.96,0,252.373,0,255.787,0.213z"/>
	<path style="fill:#FAFAFA;" d="M490.667,245.333c0,3.627,0,7.467-0.213,11.093c-123.359-5.89-228.136,89.337-234.027,212.696
		c-0.339,7.106-0.339,14.224,0,21.33c-3.627,0.213-7.467,0.213-11.093,0.213c-3.627,0-6.827,0-10.24-0.213
		c-5.958-135.186,98.801-249.606,233.987-255.564c7.121-0.314,14.252-0.317,21.373-0.009
		C490.667,238.293,490.667,241.92,490.667,245.333z"/>
</g>
<g>
</g>
<g>
</g>
<g>
</g>
<g>
</g>
<g>
</g>
<g>
</g>
<g>
</g>
<g>
</g>
<g>
</g>
<g>
</g>
<g>
</g>
<g>
</g>
<g>
</g>
<g>
</g>
<g>
</g>
</svg>
